# xmcd
#
# Track frame offsets: 
#        183
#        15563
#        29740
#        51798
#        72730
#        86458
#        101155
#        113608
#        132153
#        148113
#        164900
#        179393
#        195875
#        213375
#
# Disc length: 3012 seconds
#
# Revision: 0
# Processed by: cddbd v1.5.2PL0 Copyright (c) Steve Scherf et al.
# Submitted via: ExactAudioCopy v0.95b4
#
DISCID=cd0bc20e
DTITLE=Hang On In There Baby - Johnny Bristol
DYEAR=1994
DGENRE=Soul
TTITLE0=Hang On In There Baby
TTITLE1=Take Good Care Of You For Me
TTITLE2=She Came Into My Life
TTITLE3=Do It To My Mind
TTITLE4=Love To Have A Chance To Taste The Wine
TTITLE5=Love Takes Tears (You Haven't Learned To Cry)
TTITLE6=All Goodbyes Aren't Gone
TTITLE7=Memories Don't Leave Like People Do
TTITLE8=It Don't Hurt No More
TTITLE9=Love Me For A Reason
TTITLE10=Leave My World
TTITLE11=You And I
TTITLE12=I Sho Like Groovin' With Ya
TTITLE13=Feelin' The Magic
EXTD=
EXTT0=
EXTT1=
EXTT2=
EXTT3=
EXTT4=
EXTT5=
EXTT6=
EXTT7=
EXTT8=
EXTT9=
EXTT10=
EXTT11=
EXTT12=
EXTT13=
PLAYORDER=
